<svg width="36" height="36" viewBox="0 0 36 36" fill="none" xmlns="http://www.w3.org/2000/svg">
<rect width="36" height="36" rx="6" transform="matrix(-1 0 0 1 36 0)" fill="white"/>
<rect x="-0.375" y="0.375" width="35.25" height="35.25" rx="5.625" transform="matrix(-1 0 0 1 35.25 0)" stroke="#92A1AD" stroke-opacity="0.4" stroke-width="0.75"/>
<path d="M19.0332 14.98C19.1598 14.98 19.2865 14.9333 19.3865 14.8333L21.5132 12.7067L23.6399 14.8333C23.8332 15.0267 24.1532 15.0267 24.3465 14.8333C24.5398 14.64 24.5398 14.32 24.3465 14.1267L21.8665 11.6466C21.7732 11.5533 21.6465 11.5 21.5132 11.5C21.3798 11.5 21.2532 11.5533 21.1598 11.6466L18.6798 14.1267C18.4865 14.32 18.4865 14.64 18.6798 14.8333C18.7798 14.9333 18.9065 14.98 19.0332 14.98Z" fill="#8B8B8B"/>
<path d="M21.5134 24.5C21.7867 24.5 22.0134 24.2733 22.0134 24V12C22.0134 11.7267 21.7867 11.5 21.5134 11.5C21.24 11.5 21.0134 11.7267 21.0134 12V24C21.0134 24.2733 21.24 24.5 21.5134 24.5Z" fill="#8B8B8B"/>
<path d="M14.48 24.5C14.6133 24.5 14.74 24.4467 14.8333 24.3533L17.3133 21.8733C17.5066 21.68 17.5066 21.36 17.3133 21.1666C17.12 20.9733 16.8 20.9733 16.6066 21.1666L14.48 23.2933L12.3534 21.1666C12.16 20.9733 11.84 20.9733 11.6466 21.1666C11.4533 21.36 11.4533 21.68 11.6466 21.8733L14.1267 24.3533C14.22 24.4467 14.3533 24.5 14.48 24.5Z" fill="#8B8B8B"/>
<path d="M14.4866 24.5C14.76 24.5 14.9866 24.2733 14.9866 24V12C14.9866 11.7267 14.76 11.5 14.4866 11.5C14.2133 11.5 13.9866 11.7267 13.9866 12V24C13.9866 24.2733 14.2066 24.5 14.4866 24.5Z" fill="#8B8B8B"/>
</svg>
