<svg width="32" height="32" viewBox="0 0 32 32" fill="none" xmlns="http://www.w3.org/2000/svg">
<rect width="32" height="32" rx="8" fill="#E7EAED"/>
<path d="M17.3074 19.6698C17.2052 19.6698 17.1029 19.6321 17.0222 19.5514C16.8662 19.3954 16.8662 19.1371 17.0222 18.9811L20.0028 16.0005L17.0222 13.02C16.8662 12.8639 16.8662 12.6057 17.0222 12.4497C17.1783 12.2936 17.4365 12.2936 17.5925 12.4497L20.8583 15.7154C21.0143 15.8714 21.0143 16.1297 20.8583 16.2857L17.5925 19.5514C17.5118 19.6321 17.4096 19.6698 17.3074 19.6698Z" fill="#292D32"/>
<path d="M20.4817 16.4041H11.4269C11.2064 16.4041 11.0234 16.2211 11.0234 16.0006C11.0234 15.78 11.2064 15.597 11.4269 15.597H20.4817C20.7023 15.597 20.8852 15.78 20.8852 16.0006C20.8852 16.2211 20.7023 16.4041 20.4817 16.4041Z" fill="#292D32"/>
</svg>
