<svg width="68" height="31" viewBox="0 0 68 31" fill="none" xmlns="http://www.w3.org/2000/svg">
<rect x="0.798033" y="0.40338" width="66.5641" height="29.4723" rx="7.6619" fill="#FAFAFA" stroke="#E8E8E8" stroke-width="0.806515"/>
<path d="M27.7886 10.697C27.7886 10.6324 27.8088 10.5759 27.8492 10.5274C27.8976 10.479 27.9542 10.4548 28.0188 10.4548H28.6122C28.6768 10.4548 28.7293 10.479 28.7697 10.5274C28.81 10.5759 28.8302 10.6324 28.8302 10.697V17.8065C28.8302 17.9679 28.8464 18.0971 28.8787 18.194C28.9191 18.2828 28.9715 18.3515 29.0361 18.3999C29.1088 18.4484 29.1936 18.4807 29.2905 18.4968C29.3954 18.513 29.5125 18.521 29.6417 18.521H29.9445V19.5626H29.3753C29.1169 19.5626 28.8908 19.5424 28.697 19.5021C28.5032 19.4536 28.3377 19.3729 28.2004 19.2598C28.0632 19.1387 27.9582 18.9813 27.8855 18.7875C27.8209 18.5937 27.7886 18.3434 27.7886 18.0366V10.697ZM29.4549 18.6785C29.4549 18.63 29.4953 18.5937 29.576 18.5695C29.6568 18.5372 29.7537 18.521 29.8667 18.521H30.7145C30.9487 18.521 31.0981 18.5008 31.1626 18.4605C31.2272 18.4201 31.2595 18.295 31.2595 18.085C31.2595 17.8024 31.2595 17.536 31.2595 17.2857C31.2595 17.0354 31.2595 16.785 31.2595 16.5347C31.2595 16.2844 31.2555 16.0261 31.2474 15.7596C31.2474 15.4932 31.2434 15.2025 31.2353 14.8876C31.2353 14.823 31.2515 14.7705 31.2838 14.7301C31.3241 14.6817 31.3766 14.6575 31.4412 14.6575H32.0226C32.0952 14.6575 32.1518 14.6817 32.1921 14.7301C32.2325 14.7705 32.2527 14.823 32.2527 14.8876C32.2608 15.1621 32.2648 15.3922 32.2648 15.5779C32.2729 15.7636 32.2769 15.9413 32.2769 16.1108C32.2769 16.2723 32.2769 16.4419 32.2769 16.6195C32.2769 16.7891 32.2769 16.995 32.2769 17.2372C32.2769 17.6248 32.2729 17.9841 32.2648 18.3151C32.2648 18.6462 32.2527 18.9046 32.2285 19.0903C32.2123 19.171 32.1841 19.2396 32.1437 19.2962C32.1114 19.3527 32.0468 19.4011 31.9499 19.4415C31.8853 19.4657 31.7965 19.4859 31.6834 19.5021C31.5704 19.5101 31.4412 19.5223 31.2959 19.5384C31.1505 19.5465 31.0012 19.5545 30.8477 19.5626C30.6943 19.5626 30.549 19.5626 30.4117 19.5626H29.8667C29.7537 19.5626 29.6568 19.5505 29.576 19.5263C29.4953 19.494 29.4549 19.4496 29.4549 19.3931V18.6785ZM29.5034 20.9554C29.5034 20.8747 29.5316 20.8101 29.5882 20.7617C29.6366 20.7132 29.7012 20.689 29.7819 20.689H30.2543C30.335 20.689 30.3996 20.7132 30.4481 20.7617C30.5046 20.8101 30.5328 20.8747 30.5328 20.9554V21.6095C30.5328 21.6741 30.5046 21.7306 30.4481 21.779C30.3915 21.8355 30.327 21.8638 30.2543 21.8638H29.7819C29.7012 21.8638 29.6366 21.8355 29.5882 21.779C29.5316 21.7306 29.5034 21.6741 29.5034 21.6095V20.9554ZM31.4775 20.9554C31.4775 20.8747 31.5058 20.8101 31.5623 20.7617C31.6269 20.7132 31.6956 20.689 31.7682 20.689H32.2406C32.3132 20.689 32.3778 20.7132 32.4344 20.7617C32.4909 20.8101 32.5191 20.8747 32.5191 20.9554V21.6095C32.5191 21.6741 32.4909 21.7306 32.4344 21.779C32.3778 21.8355 32.3132 21.8638 32.2406 21.8638H31.7682C31.6956 21.8638 31.6269 21.8355 31.5623 21.779C31.5058 21.7306 31.4775 21.6741 31.4775 21.6095V20.9554ZM34.4738 21.5974C34.4738 21.4843 34.5384 21.4278 34.6676 21.4278C34.8049 21.4278 34.9785 21.4278 35.1884 21.4278C35.3983 21.4359 35.5679 21.4399 35.6971 21.4399C36.0201 21.4399 36.3067 21.4197 36.557 21.3793C36.8154 21.3471 37.0334 21.2784 37.211 21.1735C37.3967 21.0766 37.538 20.9353 37.6349 20.7496C37.7318 20.5719 37.7843 20.3378 37.7924 20.0471V19.5626H36.5812C35.7657 19.5626 35.14 19.3527 34.7039 18.9328C34.2679 18.513 34.0499 17.8791 34.0499 17.0313V16.7285C34.0499 15.8807 34.3002 15.2106 34.8008 14.718C35.3014 14.2255 36.012 13.9792 36.9325 13.9792C37.2554 13.9792 37.5663 13.9954 37.865 14.0277C38.1719 14.0519 38.4302 14.0963 38.6402 14.1609C38.7128 14.1851 38.7613 14.2134 38.7855 14.2457C38.8097 14.2699 38.8219 14.3143 38.8219 14.3789V18.521H39.8756V19.5626H38.8097V20.0229C38.7936 20.475 38.7128 20.8505 38.5675 21.1492C38.4222 21.4561 38.2244 21.6983 37.974 21.8759C37.7237 22.0616 37.421 22.1908 37.0657 22.2635C36.7185 22.3442 36.335 22.3846 35.9151 22.3846C35.8343 22.3846 35.7294 22.3806 35.6002 22.3725C35.4791 22.3725 35.3539 22.3685 35.2247 22.3604C35.1036 22.3604 34.9906 22.3563 34.8856 22.3483C34.7806 22.3402 34.708 22.3321 34.6676 22.324C34.5869 22.3079 34.5344 22.2837 34.5102 22.2514C34.4859 22.2272 34.4738 22.1868 34.4738 22.1303V21.5974ZM35.0673 16.9102C35.0673 17.4835 35.1884 17.8993 35.4306 18.1577C35.6729 18.4161 36.0645 18.5453 36.6054 18.5453H37.8045V14.9845C37.643 14.9683 37.4855 14.9562 37.3321 14.9481C37.1787 14.9401 37.0011 14.936 36.7992 14.936C36.2663 14.936 35.8424 15.0854 35.5275 15.3842C35.2207 15.6829 35.0673 16.1108 35.0673 16.668V16.9102ZM39.3901 18.6785C39.3901 18.63 39.4305 18.5937 39.5113 18.5695C39.592 18.5372 39.6889 18.521 39.8019 18.521H40.347C40.4277 18.521 40.5165 18.517 40.6134 18.5089C40.7103 18.5008 40.8032 18.4847 40.892 18.4605C40.9808 18.4282 41.0535 18.3838 41.11 18.3272C41.1746 18.2627 41.2069 18.1779 41.2069 18.0729V14.8997C41.2069 14.8351 41.2271 14.7826 41.2674 14.7422C41.3159 14.6938 41.3724 14.6696 41.437 14.6696H41.9941C42.0587 14.6696 42.1112 14.6938 42.1516 14.7422C42.2 14.7826 42.2242 14.8351 42.2242 14.8997V18.2304C42.2485 18.295 42.2969 18.3474 42.3696 18.3878C42.4503 18.4201 42.5351 18.4484 42.6239 18.4726C42.7208 18.4887 42.8177 18.5008 42.9146 18.5089C43.0115 18.517 43.0963 18.521 43.1689 18.521H43.3385V19.5626H43.1932C42.9429 19.5626 42.6724 19.5384 42.3817 19.49C42.0991 19.4334 41.8649 19.3244 41.6792 19.1629C41.4774 19.3244 41.2351 19.4334 40.9525 19.49C40.678 19.5384 40.4277 19.5626 40.2016 19.5626H39.8019C39.6889 19.5626 39.592 19.5505 39.5113 19.5263C39.4305 19.494 39.3901 19.4496 39.3901 19.3931V18.6785ZM41.1827 12.1867C41.1827 12.106 41.2109 12.0414 41.2674 11.9929C41.324 11.9445 41.3885 11.9203 41.4612 11.9203H41.9941C42.0668 11.9203 42.1273 11.9445 42.1758 11.9929C42.2323 12.0414 42.2606 12.106 42.2606 12.1867V12.8407C42.2606 12.9134 42.2323 12.974 42.1758 13.0224C42.1273 13.0709 42.0628 13.0951 41.982 13.0951H41.4612C41.3805 13.0951 41.3118 13.0709 41.2553 13.0224C41.2069 12.974 41.1827 12.9134 41.1827 12.8407V12.1867ZM42.8556 18.6785C42.8556 18.63 42.896 18.5937 42.9768 18.5695C43.0575 18.5372 43.1544 18.521 43.2674 18.521H43.7277C43.8084 18.521 43.8972 18.517 43.9941 18.5089C44.091 18.5008 44.1798 18.4847 44.2606 18.4605C44.3494 18.4282 44.4221 18.3838 44.4786 18.3272C44.5432 18.2627 44.5755 18.1779 44.5755 18.0729V15.4568C44.5755 15.3922 44.5957 15.3357 44.636 15.2873C44.6764 15.2388 44.7289 15.2146 44.7935 15.2146H45.3506C45.4152 15.2146 45.4677 15.2388 45.5081 15.2873C45.5484 15.3357 45.5686 15.3922 45.5686 15.4568V18.2546C45.5929 18.3192 45.6413 18.3717 45.714 18.412C45.7947 18.4443 45.8795 18.4726 45.9683 18.4968C46.0652 18.513 46.1621 18.5251 46.259 18.5331C46.3559 18.5412 46.4407 18.5453 46.5133 18.5453H46.7798C46.8524 18.5453 46.9332 18.5412 47.022 18.5331C47.1189 18.517 47.2037 18.4968 47.2764 18.4726C47.3571 18.4403 47.4257 18.3959 47.4822 18.3394C47.5388 18.2828 47.567 18.2061 47.567 18.1092V15.045C47.567 14.9804 47.5872 14.928 47.6276 14.8876C47.676 14.8391 47.7326 14.8149 47.7971 14.8149H48.3543C48.4189 14.8149 48.4714 14.8391 48.5117 14.8876C48.5521 14.928 48.5723 14.9804 48.5723 15.045V18.2546C48.5965 18.3192 48.645 18.3717 48.7176 18.412C48.7903 18.4443 48.8751 18.4726 48.972 18.4968C49.0769 18.513 49.1859 18.5251 49.299 18.5331C49.412 18.5412 49.521 18.5453 49.626 18.5453H50.0136C50.1347 18.5453 50.2275 18.5453 50.2921 18.5453C50.3648 18.5372 50.4213 18.521 50.4617 18.4968C50.502 18.4645 50.5263 18.4201 50.5343 18.3636C50.5505 18.3071 50.5586 18.2223 50.5586 18.1092C50.5586 17.544 50.5586 16.9748 50.5586 16.4015C50.5586 15.8202 50.5505 15.2146 50.5343 14.5848C50.5343 14.5202 50.5545 14.4677 50.5949 14.4273C50.6353 14.3789 50.6878 14.3547 50.7524 14.3547H51.3216C51.3943 14.3547 51.4508 14.3789 51.4912 14.4273C51.5315 14.4677 51.5517 14.5202 51.5517 14.5848C51.5598 14.8593 51.5638 15.1056 51.5638 15.3236C51.5719 15.5416 51.5759 15.7515 51.5759 15.9534C51.5759 16.1553 51.5759 16.3611 51.5759 16.5711C51.5759 16.7729 51.5759 16.995 51.5759 17.2372V17.6732C51.5759 17.7701 51.5759 17.8791 51.5759 18.0002C51.5759 18.1214 51.5719 18.2465 51.5638 18.3757C51.5638 18.4968 51.5598 18.6179 51.5517 18.739C51.5436 18.8602 51.5356 18.9692 51.5275 19.0661C51.5113 19.1549 51.4831 19.2275 51.4427 19.2841C51.4104 19.3406 51.3458 19.389 51.2489 19.4294C51.1197 19.4698 50.9381 19.5021 50.7039 19.5263C50.4778 19.5424 50.2356 19.5505 49.9772 19.5505H49.7834C49.4928 19.5505 49.2021 19.5263 48.9114 19.4778C48.6207 19.4294 48.3704 19.3244 48.1605 19.1629C47.999 19.3002 47.7931 19.4011 47.5428 19.4657C47.3006 19.5303 47.0382 19.5626 46.7556 19.5626H46.5497C46.2994 19.5626 46.045 19.5384 45.7866 19.49C45.5283 19.4334 45.3062 19.3244 45.1205 19.1629C44.9267 19.3244 44.6926 19.4334 44.418 19.49C44.1435 19.5384 43.8811 19.5626 43.6308 19.5626H43.2674C43.1544 19.5626 43.0575 19.5505 42.9768 19.5263C42.896 19.494 42.8556 19.4496 42.8556 19.3931V18.6785Z" fill="#1C1C28"/>
<path d="M10.0579 14.2084L12.5645 16.8762C12.8605 17.1912 13.3449 17.1912 13.641 16.8762L16.1476 14.2084" stroke="#898989" stroke-width="0.826481" stroke-miterlimit="10" stroke-linecap="round" stroke-linejoin="round"/>
</svg>
